{"title":"20-20 - 26-8-2016 - The Girl Left Behind","uid":15959432,"size":993300223,"categoryP":"video","categoryS":"tv_shows","magnet":"?xt=urn:btih:ce44726b7e1a709948cefd0130c720cedc17c463&amp;dn=20-20+-+26-8-2016+-+The+Girl+Left+Behind&amp;tr=udp%3A%2F%2Ftracker.leechers-paradise.org%3A6969&amp;tr=udp%3A%2F%2Fzer0day.ch%3A1337&amp;tr=udp%3A%2F%2Fopen.demonii.com%3A1337&amp;tr=udp%3A%2F%2Ftracker.coppersurfer.tk%3A6969&amp;tr=udp%3A%2F%2Fexodus.desync.com%3A6969","seeders":3,"leechers":1,"uploader":"Bullrout","files":1,"time":1475646319,"description":"20-20 - 26-8-2016 - The Girl Left Behind\r\n\r\nAn investigation into the captivity and fight for freedom of American ISIS hostage Kayla Mueller, a humanitarian aid worker from Prescott, Ariz., who was kidnapped in 2013.\r\n\r\nComplete name                            : 20-20 - 26-8-2016 - The Girl Left Behind.mkv\r\nFormat                                   : Matroska\r\nFormat version                           : Version 4 / Version 2\r\nFile size                                : 947 MiB\r\nDuration                                 : 39 min 51 s\r\nOverall bit rate mode                    : Variable\r\nOverall bit rate                         : 3 322 kb/s\r\nEncoded date                             : UTC 2016-09-26 04:39:18\r\nWriting application                      : mkvmerge v9.4.2 ('So High') 64bit\r\nWriting library                          : libebml v1.3.4 + libmatroska v1.4.5\r\n\r\nVideo\r\nID                                       : 2\r\nFormat                                   : AVC\r\nFormat/Info                              : Advanced Video Codec\r\nFormat profile                           :   \r\nFormat settings, CABAC                   : Yes\r\nFormat settings, ReFrames                : 3 frames\r\nCodec ID                                 : V_MPEG4/ISO/AVC\r\nDuration                                 : 39 min 51 s\r\nBit rate mode                            : Variable\r\nBit rate                                 : 2 937 kb/s\r\nMaximum bit rate                         : 3 000 kb/s\r\nWidth                                    : 1 280 pixels\r\nHeight                                   : 720 pixels\r\nDisplay aspect ratio                     : 16:9\r\nFrame rate mode                          : Constant\r\nFrame rate                               : 25.000 FPS\r\nStandard                                 : PAL\r\nColor space                              : YUV\r\nChroma subsampling                       : 4:2:0\r\nBit depth                                : 8 bits\r\nScan type                                : Progressive\r\nBits/(Pixel*Frame)                       : 0.127\r\nStream size                              : 837 MiB (88%)\r\nWriting library                          : x264 core 112\r\nDefault                                  : Yes\r\nForced                                   : No\r\nColor range                              : Limited\r\nColor primaries                          : BT.709\r\nTransfer characteristics                 : BT.709\r\nMatrix coefficients                      : BT.709\r\n\r\nAudio\r\nID                                       : 1\r\nFormat                                   : AC-3\r\nFormat/Info                              : Audio Coding 3\r\nMode extension                           : CM (complete main)\r\nFormat settings, Endianness              : Big\r\nCodec ID                                 : A_AC3\r\nDuration                                 : 39 min 51 s\r\nBit rate mode                            : Constant\r\nBit rate                                 : 384 kb/s\r\nChannel(s)                               : 6 channels\r\nChannel positions                        : Front: L C R, Side: L R, LFE\r\nSampling rate                            : 48.0 kHz\r\nFrame rate                               : 31.250 FPS (1536 spf)\r\nCompression mode                         : Lossy\r\nStream size                              : 109 MiB (12%)\r\nDefault                                  : Yes\r\nForced                                   : No","torrent":{"xt":"urn:btih:ce44726b7e1a709948cefd0130c720cedc17c463","amp;dn":"20-20+-+26-8-2016+-+The+Girl+Left+Behind","amp;tr":["udp%3A%2F%2Ftracker.leechers-paradise.org%3A6969","udp%3A%2F%2Fzer0day.ch%3A1337","udp%3A%2F%2Fopen.demonii.com%3A1337","udp%3A%2F%2Ftracker.coppersurfer.tk%3A6969","udp%3A%2F%2Fexodus.desync.com%3A6969"],"infoHash":"ce44726b7e1a709948cefd0130c720cedc17c463","infoHashBuffer":{"type":"Buffer","data":[206,68,114,107,126,26,112,153,72,206,253,1,48,199,32,206,220,23,196,99]},"announce":[],"urlList":[]}}